<mxfile host="app.diagrams.net" modified="2020-05-29T19:35:55.159Z" agent="5.0 (Windows NT 10.0; Win64; x64) AppleWebKit/537.36 (KHTML, like Gecko) Chrome/83.0.4103.61 Safari/537.36" etag="cmnMa-t3c2DDcPaUmBRY" version="13.1.6" type="github">
  <diagram id="sCNQfAvjFDcfT_C7OlGz" name="Page-1">
    <mxGraphModel dx="953" dy="1062" grid="1" gridSize="10" guides="1" tooltips="1" connect="1" arrows="1" fold="1" page="1" pageScale="1" pageWidth="827" pageHeight="1169" math="0" shadow="0">
      <root>
        <mxCell id="0" />
        <mxCell id="1" parent="0" />
        <mxCell id="i8g4CFV1DMbXo4orfTD8-3" value="" style="edgeStyle=orthogonalEdgeStyle;rounded=0;orthogonalLoop=1;jettySize=auto;html=1;" parent="1" source="i8g4CFV1DMbXo4orfTD8-1" target="i8g4CFV1DMbXo4orfTD8-2" edge="1">
          <mxGeometry relative="1" as="geometry" />
        </mxCell>
        <mxCell id="A54Wn-n3SiKQ8YFVsQl0-10" value="" style="edgeStyle=orthogonalEdgeStyle;rounded=0;orthogonalLoop=1;jettySize=auto;html=1;" parent="1" source="i8g4CFV1DMbXo4orfTD8-1" target="A54Wn-n3SiKQ8YFVsQl0-9" edge="1">
          <mxGeometry relative="1" as="geometry" />
        </mxCell>
        <mxCell id="i8g4CFV1DMbXo4orfTD8-1" value="&lt;font style=&quot;vertical-align: inherit&quot;&gt;&lt;font style=&quot;vertical-align: inherit&quot;&gt;IF $aplica == &quot;si&quot;&lt;br&gt;&lt;/font&gt;&lt;/font&gt;" style="text;html=1;align=center;verticalAlign=middle;resizable=0;points=[];autosize=1;fillColor=#f8cecc;strokeColor=#b85450;" parent="1" vertex="1">
          <mxGeometry x="300" y="280" width="100" height="20" as="geometry" />
        </mxCell>
        <mxCell id="A54Wn-n3SiKQ8YFVsQl0-12" value="" style="edgeStyle=orthogonalEdgeStyle;rounded=0;orthogonalLoop=1;jettySize=auto;html=1;" parent="1" source="A54Wn-n3SiKQ8YFVsQl0-9" target="A54Wn-n3SiKQ8YFVsQl0-11" edge="1">
          <mxGeometry relative="1" as="geometry" />
        </mxCell>
        <mxCell id="A54Wn-n3SiKQ8YFVsQl0-9" value="&lt;font style=&quot;vertical-align: inherit&quot;&gt;&lt;font style=&quot;vertical-align: inherit&quot;&gt;tiporegla == SERVICE FEE&lt;br&gt;&lt;/font&gt;&lt;/font&gt;" style="text;html=1;align=center;verticalAlign=middle;resizable=0;points=[];autosize=1;fillColor=#f8cecc;strokeColor=#b85450;" parent="1" vertex="1">
          <mxGeometry x="490" y="270" width="160" height="20" as="geometry" />
        </mxCell>
        <mxCell id="A54Wn-n3SiKQ8YFVsQl0-11" value="&lt;font style=&quot;vertical-align: inherit&quot;&gt;&lt;font style=&quot;vertical-align: inherit&quot;&gt;$aplicar_sf[] = $row3[&quot;eidregla&quot;]&lt;br&gt;&lt;/font&gt;&lt;/font&gt;" style="text;html=1;align=center;verticalAlign=middle;resizable=0;points=[];autosize=1;fillColor=#ffe6cc;strokeColor=#d79b00;" parent="1" vertex="1">
          <mxGeometry x="550" y="345" width="180" height="20" as="geometry" />
        </mxCell>
        <mxCell id="i8g4CFV1DMbXo4orfTD8-2" value="&lt;font style=&quot;vertical-align: inherit&quot;&gt;&lt;font style=&quot;vertical-align: inherit&quot;&gt;La regla &quot;. $ Idr.&quot; &lt;/font&gt;&lt;font style=&quot;vertical-align: inherit&quot;&gt;es una de las &lt;br&gt;posibles para ser aplicada a este itinerario.&lt;/font&gt;&lt;/font&gt;" style="text;html=1;align=center;verticalAlign=middle;resizable=0;points=[];autosize=1;fillColor=#fff2cc;strokeColor=#d6b656;" parent="1" vertex="1">
          <mxGeometry x="110" y="340" width="240" height="30" as="geometry" />
        </mxCell>
        <mxCell id="A54Wn-n3SiKQ8YFVsQl0-1" value="&lt;div&gt;$ttar=$x //ADT, NEG?&lt;/div&gt;&lt;div&gt;$tiporegla=$row3[&quot;tipo_cargo&quot;]; // &#39;MARK UP 0&#39;, &#39;DESCUENTO 1&#39;, &#39;SERVICE FEE 2&lt;span&gt;&#39;&lt;/span&gt;&lt;/div&gt;&lt;div&gt;&lt;span&gt;$aplicar = array();&lt;br&gt;$aplicar_sf = array();&lt;/span&gt;&lt;/div&gt;" style="text;html=1;align=left;verticalAlign=middle;resizable=0;points=[];autosize=1;fillColor=#d5e8d4;strokeColor=#82b366;" parent="1" vertex="1">
          <mxGeometry x="440" y="105" width="460" height="60" as="geometry" />
        </mxCell>
        <mxCell id="A54Wn-n3SiKQ8YFVsQl0-4" value="" style="edgeStyle=orthogonalEdgeStyle;rounded=0;orthogonalLoop=1;jettySize=auto;html=1;" parent="1" source="A54Wn-n3SiKQ8YFVsQl0-2" edge="1">
          <mxGeometry relative="1" as="geometry">
            <mxPoint x="455" y="445" as="targetPoint" />
          </mxGeometry>
        </mxCell>
        <mxCell id="A54Wn-n3SiKQ8YFVsQl0-8" value="" style="edgeStyle=orthogonalEdgeStyle;rounded=0;orthogonalLoop=1;jettySize=auto;html=1;" parent="1" source="A54Wn-n3SiKQ8YFVsQl0-2" target="i8g4CFV1DMbXo4orfTD8-1" edge="1">
          <mxGeometry relative="1" as="geometry">
            <mxPoint x="455" y="265" as="targetPoint" />
          </mxGeometry>
        </mxCell>
        <mxCell id="A54Wn-n3SiKQ8YFVsQl0-2" value="tiporegla != SERVICE FEE 2" style="text;html=1;align=center;verticalAlign=middle;resizable=0;points=[];autosize=1;fillColor=#f8cecc;strokeColor=#b85450;" parent="1" vertex="1">
          <mxGeometry x="370" y="345" width="170" height="20" as="geometry" />
        </mxCell>
        <mxCell id="A54Wn-n3SiKQ8YFVsQl0-6" value="$aplicar[] = $row3[&quot;eidregla&quot;];" style="text;html=1;align=center;verticalAlign=middle;resizable=0;points=[];autosize=1;fillColor=#ffe6cc;strokeColor=#d79b00;" parent="1" vertex="1">
          <mxGeometry x="380" y="450" width="170" height="20" as="geometry" />
        </mxCell>
        <mxCell id="A54Wn-n3SiKQ8YFVsQl0-15" value="" style="edgeStyle=orthogonalEdgeStyle;rounded=0;orthogonalLoop=1;jettySize=auto;html=1;" parent="1" source="A54Wn-n3SiKQ8YFVsQl0-13" target="A54Wn-n3SiKQ8YFVsQl0-14" edge="1">
          <mxGeometry relative="1" as="geometry" />
        </mxCell>
        <mxCell id="A54Wn-n3SiKQ8YFVsQl0-13" value="IF $aplica == &quot;no&quot;&lt;br&gt;" style="text;html=1;align=center;verticalAlign=middle;resizable=0;points=[];autosize=1;fillColor=#f8cecc;strokeColor=#b85450;" parent="1" vertex="1">
          <mxGeometry x="300" y="230" width="110" height="20" as="geometry" />
        </mxCell>
        <mxCell id="A54Wn-n3SiKQ8YFVsQl0-14" value="La regla &quot;.$idr.&quot; no califico para aplicarse a este itinerario" style="text;html=1;align=center;verticalAlign=middle;resizable=0;points=[];autosize=1;fillColor=#fff2cc;strokeColor=#d6b656;" parent="1" vertex="1">
          <mxGeometry x="140" y="180" width="320" height="20" as="geometry" />
        </mxCell>
        <mxCell id="RwOiJO54GyctnMx1H0Py-16" value="" style="edgeStyle=orthogonalEdgeStyle;rounded=0;orthogonalLoop=1;jettySize=auto;html=1;entryX=0.342;entryY=0.012;entryDx=0;entryDy=0;entryPerimeter=0;" parent="1" source="RwOiJO54GyctnMx1H0Py-1" target="RwOiJO54GyctnMx1H0Py-11" edge="1">
          <mxGeometry relative="1" as="geometry">
            <mxPoint x="230" y="100" as="targetPoint" />
          </mxGeometry>
        </mxCell>
        <mxCell id="RwOiJO54GyctnMx1H0Py-1" value="Esto es un FOR&lt;br&gt;" style="text;html=1;align=center;verticalAlign=middle;resizable=0;points=[];autosize=1;fillColor=#e1d5e7;strokeColor=#9673a6;" parent="1" vertex="1">
          <mxGeometry x="50" y="90" width="100" height="20" as="geometry" />
        </mxCell>
        <mxCell id="RwOiJO54GyctnMx1H0Py-4" value="" style="edgeStyle=orthogonalEdgeStyle;rounded=0;orthogonalLoop=1;jettySize=auto;html=1;" parent="1" source="RwOiJO54GyctnMx1H0Py-2" target="RwOiJO54GyctnMx1H0Py-3" edge="1">
          <mxGeometry relative="1" as="geometry" />
        </mxCell>
        <mxCell id="RwOiJO54GyctnMx1H0Py-19" value="" style="edgeStyle=orthogonalEdgeStyle;rounded=0;orthogonalLoop=1;jettySize=auto;html=1;" parent="1" source="RwOiJO54GyctnMx1H0Py-2" target="RwOiJO54GyctnMx1H0Py-18" edge="1">
          <mxGeometry relative="1" as="geometry" />
        </mxCell>
        <mxCell id="RwOiJO54GyctnMx1H0Py-2" value="Cuando termina el FOR&lt;br&gt;" style="text;html=1;align=center;verticalAlign=middle;resizable=0;points=[];autosize=1;fillColor=#d5e8d4;strokeColor=#82b366;" parent="1" vertex="1">
          <mxGeometry x="96" y="518" width="140" height="20" as="geometry" />
        </mxCell>
        <mxCell id="RwOiJO54GyctnMx1H0Py-21" value="" style="edgeStyle=orthogonalEdgeStyle;rounded=0;orthogonalLoop=1;jettySize=auto;html=1;" parent="1" source="RwOiJO54GyctnMx1H0Py-18" target="RwOiJO54GyctnMx1H0Py-20" edge="1">
          <mxGeometry relative="1" as="geometry" />
        </mxCell>
        <mxCell id="RwOiJO54GyctnMx1H0Py-18" value="IF sizeof($aplicar){" style="text;html=1;align=center;verticalAlign=middle;resizable=0;points=[];autosize=1;fillColor=#f8cecc;strokeColor=#b85450;" parent="1" vertex="1">
          <mxGeometry x="390" y="565" width="120" height="20" as="geometry" />
        </mxCell>
        <mxCell id="RwOiJO54GyctnMx1H0Py-23" value="" style="edgeStyle=orthogonalEdgeStyle;rounded=0;orthogonalLoop=1;jettySize=auto;html=1;" parent="1" source="RwOiJO54GyctnMx1H0Py-20" target="RwOiJO54GyctnMx1H0Py-22" edge="1">
          <mxGeometry relative="1" as="geometry" />
        </mxCell>
        <mxCell id="RwOiJO54GyctnMx1H0Py-20" value="db_query WHERE IN de $aplicar y elegir el menor orden" style="text;html=1;align=center;verticalAlign=middle;resizable=0;points=[];autosize=1;fillColor=#dae8fc;strokeColor=#6c8ebf;" parent="1" vertex="1">
          <mxGeometry x="330" y="618" width="320" height="20" as="geometry" />
        </mxCell>
        <mxCell id="RwOiJO54GyctnMx1H0Py-22" value="De las reglas que habian, se eligio la de mas importancia, &lt;br&gt;aplicandose la regla &quot;.$miregla.&quot; al itinerario &quot;.$ki.&quot; y la regla es de tipo" style="text;html=1;align=center;verticalAlign=middle;resizable=0;points=[];autosize=1;fillColor=#fff2cc;strokeColor=#d6b656;" parent="1" vertex="1">
          <mxGeometry x="295" y="670" width="390" height="30" as="geometry" />
        </mxCell>
        <mxCell id="RwOiJO54GyctnMx1H0Py-10" value="" style="edgeStyle=orthogonalEdgeStyle;rounded=0;orthogonalLoop=1;jettySize=auto;html=1;" parent="1" source="RwOiJO54GyctnMx1H0Py-3" target="RwOiJO54GyctnMx1H0Py-9" edge="1">
          <mxGeometry relative="1" as="geometry" />
        </mxCell>
        <mxCell id="RwOiJO54GyctnMx1H0Py-3" value="Si !sizeof $aplicar &amp;amp;&amp;amp; !sizeof $!aplicar_sf" style="text;html=1;align=center;verticalAlign=middle;resizable=0;points=[];autosize=1;fillColor=#ffe6cc;strokeColor=#d79b00;" parent="1" vertex="1">
          <mxGeometry x="51" y="618" width="230" height="20" as="geometry" />
        </mxCell>
        <mxCell id="RwOiJO54GyctnMx1H0Py-9" value="$def = &quot;si&quot;" style="text;html=1;align=center;verticalAlign=middle;resizable=0;points=[];autosize=1;fillColor=#ffe6cc;strokeColor=#d79b00;" parent="1" vertex="1">
          <mxGeometry x="131" y="718" width="70" height="20" as="geometry" />
        </mxCell>
        <mxCell id="RwOiJO54GyctnMx1H0Py-11" value="" style="ellipse;whiteSpace=wrap;html=1;aspect=fixed;opacity=30;fillColor=#e1d5e7;strokeColor=#9673a6;" parent="1" vertex="1">
          <mxGeometry x="190" y="140" width="360" height="360" as="geometry" />
        </mxCell>
      </root>
    </mxGraphModel>
  </diagram>
</mxfile>
